<svg width="56" height="55" viewBox="0 0 56 55" fill="none" xmlns="http://www.w3.org/2000/svg">
<path d="M55.8646 24.7466C55.6841 22.3517 53.6085 20.5778 51.1718 20.7552C51.0816 20.7552 51.0816 20.7552 51.0816 20.7552C48.8254 21.0213 47.2009 23.0613 47.3814 25.2788V25.4561C47.5619 26.964 47.5619 28.4719 47.2912 29.9797V30.1571C47.0205 31.8424 46.5692 33.5276 45.9375 35.0355C41.7861 44.7035 30.4151 49.227 20.4879 45.147C10.651 41.0669 6.04845 29.891 10.1998 20.223C12.817 14.1029 18.5025 9.84541 25.1807 8.86974C27.4369 8.60365 29.7833 8.60365 32.0395 9.04713C34.8372 9.49062 36.7323 11.9741 36.3713 14.7238C36.0104 17.2073 33.4834 18.4491 30.8663 18.183H30.6858C30.3248 18.0943 29.9638 18.0943 29.5126 18.0056H29.3321C28.7004 17.9169 28.0686 17.9169 27.4369 17.9169C21.8416 18.183 17.6 22.8839 17.8708 28.3832C18.1415 33.8824 22.9246 38.0512 28.5199 37.7851C33.1225 37.519 36.9128 34.3259 37.9055 29.891C37.9055 29.8023 38.1763 28.4719 38.1763 28.4719C38.2665 27.6736 38.2665 26.8753 38.2665 26.077C38.2665 19.6908 43.0496 14.2803 49.4571 13.3046H49.7279C50.2693 13.2159 50.8108 13.2159 51.3523 13.2159H51.7133C46.5692 4.87836 37.6348 0 27.9784 0C12.3657 0.177395 -0.17857 12.7724 0.0019236 28.0284C0.36291 43.2843 13.1779 55.3472 28.6101 54.9924C39.3495 54.7263 49.0059 48.5175 53.428 38.9381C53.428 38.8495 53.5182 38.8494 53.5182 38.7608C54.8719 35.8337 55.6841 32.6406 55.8646 29.3588C56.0451 27.7623 56.0451 26.2544 55.8646 24.7466Z" fill="black"/>
</svg>
