<svg width="800" height="800" fill="none" xmlns="http://www.w3.org/2000/svg"><rect width="800" height="800" rx="200" fill="#1066DF"/><g clip-path="url(#a)" fill="#fff"><path d="M574.488 556.964a18.714 18.714 0 0 0-5.777-4.611 19.266 19.266 0 0 0-7.102-2.067 19.165 19.165 0 0 0-7.349.813 18.875 18.875 0 0 0-6.467 3.569c-.494.406-.989.812-1.466 1.219-.353.3-.707.583-1.06.865a202.128 202.128 0 0 1-17.155 12.527l-.777.512a133.765 133.765 0 0 1-3.94 2.473c-.318.195-.601.371-.901.548-.3.177-.583.353-.866.53l-.512.318-.919.548c-.3.176-.583.353-.883.512a200.798 200.798 0 0 1-10.689 5.795l-.901.459-1.254.636-1.643.795-.124.071c-.548.265-1.095.512-1.643.777-.424.195-.83.389-1.254.583l-.813.371c-.424.195-.866.389-1.29.583-.565.248-1.148.513-1.731.76-1.166.512-2.35 1.007-3.534 1.484-.6.247-1.201.495-1.802.724-1.148.46-2.314.919-3.48 1.361h-.035c-1.149.441-2.315.865-3.481 1.272l-.23.088c-.547.194-1.095.389-1.66.583-.583.195-1.166.389-1.732.601l-1.749.565c-.159.053-.318.106-.494.159l-1.131.354-.936.3c-.954.3-1.891.583-2.845.866l-.636.194c-.389.106-.777.23-1.166.336l-1.343.371-1.077.3-.707.194-.901.23a153.2 153.2 0 0 1-3.056.777c-.248.071-.513.124-.76.195-.353.088-.724.176-1.095.265l-.902.212c-.07.017-.159.035-.229.053-.46.106-.937.212-1.396.318-.848.194-1.696.371-2.562.547-.812.177-1.625.336-2.42.495-.654.124-1.325.247-1.979.371l-1.219.212c-.406.071-.724.141-1.095.194-.53.089-1.043.177-1.573.265l-1.537.248-.194.035c-.636.088-1.254.194-1.873.283-.618.088-1.219.176-1.802.247l-.388.053-1.484.194h-.106c-.424.053-.831.106-1.237.159l-1.096.124c-1.077.124-2.173.247-3.268.353h-.265c-.353.071-.724.106-1.078.142l-.936.088c-.371.035-.742.071-1.113.088l-1.113.089c-1.466.106-2.95.212-4.417.3l-1.961.106-1.113.035c-.283 0-.565.018-.848.036l-1.078.035h-1.095c-.371.018-.742.053-1.113.053h-.389c-.618 0-1.236.018-1.837.018h-4.011a202.677 202.677 0 0 1-61.481-10.318c-.707-.247-1.432-.477-2.138-.724a80.24 80.24 0 0 1-1.043-.371c-.335-.124-.706-.248-1.042-.371a68.04 68.04 0 0 1-1.696-.619l-.707-.265c-.636-.229-1.272-.477-1.89-.706l-.318-.124c-.247-.088-.495-.194-.724-.283l-.248-.106-.194-.07-.424-.159-.389-.159h-.088l-.177-.089-.795-.318c-.335-.141-.689-.282-1.025-.424a69.3 69.3 0 0 1-1.696-.706h-.088l-1.131-.495-1.325-.583a203.327 203.327 0 0 1-87.223-73.266c-.159-.23-.318-.459-.459-.707a203.283 203.283 0 0 1-33.409-111.197v-3.003c0-.76.036-1.52.053-2.279v-.177c.619-22.561 5-44.875 12.986-65.987.282-.742.565-1.466.848-2.208a86.72 86.72 0 0 1 .777-1.961l.548-1.326c.3-.724.601-1.448.919-2.173.335-.795.689-1.59 1.042-2.385.018-.053.053-.106.071-.159.017-.053.053-.141.088-.212l.742-1.643s0-.035.018-.053c.229-.512.459-1.007.689-1.501.07-.142.123-.301.194-.442l.106-.247a9.36 9.36 0 0 1 .353-.725c.071-.159.142-.318.212-.459l.212-.459.053-.106.142-.283c.265-.566.547-1.131.83-1.696.053-.089.088-.195.141-.283.371-.742.742-1.484 1.113-2.208.265-.513.53-1.043.795-1.555l.177-.318s0-.035.018-.053c0 0 0-.035.017-.035.159-.318.318-.601.477-.901.053-.106.124-.212.177-.318l.353-.654c.106-.212.23-.424.336-.636l.071-.124.141-.247c.194-.389.406-.76.601-1.131a200.247 200.247 0 0 1 22.101-32.136c.142-.177.301-.354.424-.53a18.953 18.953 0 0 0 3.87-13.781 18.96 18.96 0 0 0-20.6-16.713 19.004 19.004 0 0 0-12.703 6.625 239.268 239.268 0 0 0-19.399 26.519l-.141.212c-.512.812-1.007 1.625-1.519 2.42-.265.424-.513.848-.778 1.29a239.34 239.34 0 0 0-19.522 40.422 234.777 234.777 0 0 0-6.819 21.395 9.963 9.963 0 0 0-.106.389c-.177.636-.336 1.29-.513 1.943-.053.177-.088.354-.141.548a74.68 74.68 0 0 0-.265 1.042c-.089.354-.177.689-.265 1.043a71.33 71.33 0 0 0-.495 2.084c0 .053-.035.124-.035.177-.018.106-.053.194-.071.3v.071c-.106.442-.212.884-.318 1.308-.035.123-.053.247-.088.353a239.85 239.85 0 0 0-2.739 91.975c.036.23.071.477.124.725a239.155 239.155 0 0 0 33.197 87.558c.282.442.565.901.848 1.343l.795 1.237c.265.424.53.83.795 1.236.388.601.777 1.184 1.166 1.785.229.353.459.689.689 1.024.088.142.194.283.282.424.389.583.796 1.167 1.202 1.75.088.123.177.247.247.371.036.07.089.123.124.194.053.071.088.124.141.194.389.583.795 1.166 1.202 1.732.494.706.989 1.395 1.501 2.102.495.689 1.007 1.396 1.52 2.085.424.583.848 1.148 1.254 1.713.194.265.389.53.601.795l1.007 1.325c.212.266.406.548.636.813.318.424.653.831.971 1.255.177.229.354.459.53.671.354.459.725.901 1.078 1.36.23.283.442.566.672.831.318.388.636.795.971 1.183.23.283.46.548.689.813.318.406.672.795 1.007 1.201.23.283.477.566.725.848.318.389.653.778.989 1.166.53.636 1.078 1.255 1.625 1.856.548.618 1.149 1.289 1.732 1.943.583.636 1.201 1.343 1.819 1.996.619.672 1.22 1.325 1.838 1.979.618.654 1.237 1.307 1.873 1.961a237.328 237.328 0 0 0 43.496 35.635l.371.23 1.272.795a239.594 239.594 0 0 0 77.701 31.606l1.272.265 1.166.23c.83.159 1.643.335 2.473.495.406.088.83.158 1.237.229l.636.106.636.106 1.307.23.318.053.46.088c.477.089.954.159 1.448.248l1.749.282 1.767.265 1.767.265c.583.089 1.183.159 1.766.248l1.767.229 1.113.142 1.149.141c.335.035.689.088 1.024.124.725.088 1.431.159 2.156.229l1.554.159.937.089 1.307.123a215.748 215.748 0 0 0 9.417.654c1.466.071 2.95.141 4.417.177h.583l2.685.053h6.89c.919 0 1.82-.036 2.739-.053h.194c.936-.018 1.855-.053 2.791-.089l1.431-.053 1.431-.07c.866-.036 1.75-.089 2.615-.142 1.29-.07 2.562-.159 3.852-.247 1.395-.106 2.773-.23 4.151-.353 1.467-.124 2.933-.283 4.382-.442.512-.053 1.025-.124 1.555-.177.53-.053 1.042-.123 1.554-.194l.601-.071c.495-.053.989-.123 1.466-.194a66.755 66.755 0 0 0 1.82-.247l.353-.053c.689-.106 1.379-.195 2.085-.318l.248-.036 1.342-.212 1.272-.212.76-.123h.124c.971-.177 1.925-.336 2.897-.513l.177-.035 1.696-.318a238.702 238.702 0 0 0 79.785-30.441c.442-.265.866-.53 1.307-.795a230.79 230.79 0 0 0 4.099-2.579c.53-.336 1.042-.672 1.555-1.007a242.824 242.824 0 0 0 23.444-17.438 18.908 18.908 0 0 0 6.643-12.861c.424-5-1.148-9.965-4.364-13.799h-.071Z"/><path d="M306.814 227.737c3.339 0 6.625-.884 9.505-2.58a203.392 203.392 0 0 1 11.448-6.165 204.189 204.189 0 0 1 6.254-2.969c.424-.194.848-.388 1.255-.565.424-.194.848-.371 1.272-.565.282-.124.565-.248.865-.371.566-.248 1.113-.477 1.679-.725l1.254-.53c.848-.353 1.714-.706 2.562-1.042l.972-.389 1.607-.636c.389-.159.778-.3 1.166-.441a187.526 187.526 0 0 1 5.548-1.979l1.095-.371a206.039 206.039 0 0 1 6.59-2.085l1.095-.318c2.863-.83 5.725-1.59 8.622-2.297l.954-.229 1.113-.265.76-.177.812-.194c.53-.124 1.078-.248 1.608-.354.813-.176 1.626-.353 2.456-.512l1.36-.265c1.838-.353 3.675-.689 5.512-1.007.884-.141 1.785-.3 2.668-.424.901-.141 1.802-.265 2.739-.406l.194-.036c1.307-.176 2.615-.353 3.922-.512l2.756-.318a73.552 73.552 0 0 1 2.756-.265c.919-.088 1.838-.159 2.774-.23.583-.035 1.166-.088 1.731-.123 1.149-.071 2.315-.142 3.481-.212.583-.036 1.166-.053 1.731-.089.354 0 .689-.035 1.043-.035l.954-.035 1.095-.036 1.095-.035a91.772 91.772 0 0 1 2.209-.035h2.614c8.339 0 16.678.512 24.947 1.554 1.749.212 3.498.46 5.247.725.371.053.759.123 1.148.176.636.106 1.272.212 1.926.318l.371.071.318.053c.477.088.972.159 1.449.247l.477.089.636.123.636.124 1.201.23c.424.07.848.159 1.254.247l.336.071c.954.194 1.926.406 2.88.618l.883.194c.671.142 1.325.301 1.996.46.778.176 1.555.371 2.333.565.724.177 1.448.371 2.173.548l.777.212.83.212h.036c.53.141 1.06.282 1.572.424.071 0 .141.035.212.053.247.07.495.141.724.212.336.088.672.194 1.007.282l.831.23c.388.106.777.23 1.166.336l.919.283.83.247.389.124h.035l.477.141 1.007.318.636.194.83.265c.495.159.972.318 1.467.477.742.248 1.484.513 2.226.76a214.107 214.107 0 0 1 9.717 3.675l1.095.459c.795.336 1.59.654 2.385 1.007a56.925 56.925 0 0 1 7.844 4.099c23.286 14.611 33.162 44.486 21.996 70.527a56.923 56.923 0 0 1-31.147 30.37 56.832 56.832 0 0 1-43.497-.53 88.964 88.964 0 0 0-33.939-7.173h-.035a88.534 88.534 0 0 0-10.141.477 99.336 99.336 0 0 0-4.54.601 83.8 83.8 0 0 0-2.032.353l-.601.106c-.247.053-.512.089-.759.142-.371.07-.76.141-1.131.229h-.071a28.97 28.97 0 0 1-1.201.283l-.954.23-.566.141-.918.23c-.283.07-.583.159-.866.229l-.601.159a86.077 86.077 0 0 0-3.639 1.096c-.477.159-.972.318-1.449.477l-.724.247c-.247.088-.477.159-.724.265l-.707.265c-.707.265-1.431.53-2.12.813a88.553 88.553 0 0 0-10.3 4.911c-.212.124-.442.248-.654.371-.442.248-.883.513-1.325.76-.442.265-.866.512-1.307.795-.424.265-.813.512-1.219.777l-1.06.689c-.248.159-.477.318-.725.477a5.855 5.855 0 0 0-.406.283c-.141.106-.336.23-.512.353-.177.124-.407.283-.601.424-.406.283-.813.566-1.201.866-.389.283-.813.601-1.219.901-.195.142-.389.301-.601.442a86.875 86.875 0 0 0-11.678 10.83l-.106.106c-.301.336-.601.671-.901 1.025-.283.318-.566.653-.848.989l-.318.371a64.8 64.8 0 0 0-1.043 1.272c-.123.141-.229.283-.335.424-.301.371-.583.742-.866 1.113-.212.265-.406.53-.618.795a64.985 64.985 0 0 0-1.643 2.244v.017a87.34 87.34 0 0 0-9.841 18.233c0 .035-.018.053-.035.088l-.318.795-.301.778c-.07.194-.159.406-.229.618a29.35 29.35 0 0 0-.265.76c-.106.3-.212.618-.318.918-.106.318-.212.654-.318.972a87.405 87.405 0 0 0-2.986 43.709c.088.53.194 1.042.318 1.572a87.164 87.164 0 0 0 12.597 30.723l.494.76a87.038 87.038 0 0 0 23.657 23.904c.3.194.6.406.901.6a87.632 87.632 0 0 0 39.009 14.258l1.007.106.901.088.424.036c5.6.494 11.236.459 16.837-.142.212-.017.441-.053.653-.088h.053a88.499 88.499 0 0 0 33.215-10.636 19.015 19.015 0 0 0 5.618-4.788 18.956 18.956 0 0 0 3.357-6.589c.671-2.403.883-4.894.583-7.368a19.036 19.036 0 0 0-2.279-7.031 18.827 18.827 0 0 0-4.806-5.618 18.78 18.78 0 0 0-6.59-3.357 18.855 18.855 0 0 0-7.367-.583c-2.473.3-4.858 1.06-7.031 2.279a50.592 50.592 0 0 1-30.317 6.042l-.548-.071c-.318-.035-.636-.088-.954-.123-.318-.053-.671-.089-1.025-.159-.424-.071-.83-.142-1.254-.23a34.705 34.705 0 0 1-1.944-.424c-.194-.035-.371-.088-.547-.124l-.636-.159c-.212-.053-.407-.106-.636-.159l-.636-.176-.53-.159-.689-.212c-.407-.124-.813-.265-1.219-.389-.195-.071-.407-.141-.601-.212-.406-.141-.813-.3-1.201-.442a52.755 52.755 0 0 1-1.785-.724l-.459-.194-.477-.212-.477-.23-.742-.353a50.945 50.945 0 0 1-19.116-16.219l-.424-.636c-.141-.212-.283-.406-.406-.601a13.229 13.229 0 0 1-.354-.547 51.044 51.044 0 0 1-8.127-26.607v-1.661c0-.247 0-.53.018-.812.018-.265.018-.53.035-.813 0-.194 0-.389.036-.583l.035-.583c.035-.477.071-.954.124-1.414.017-.212.035-.406.07-.618.036-.371.089-.742.142-1.131.035-.282.07-.565.123-.848l.106-.636c.071-.388.124-.777.212-1.166.071-.388.142-.742.212-1.113.089-.371.177-.812.265-1.219.071-.265.124-.53.195-.812.053-.212.106-.407.159-.636a512 512 0 0 1 .371-1.325 53.733 53.733 0 0 1 1.978-5.424 50.054 50.054 0 0 1 3.357-6.484c.195-.318.389-.636.601-.954.194-.318.442-.689.689-1.025.141-.23.318-.442.459-.654.248-.353.495-.689.742-1.024l.389-.53c.141-.195.283-.371.424-.548.177-.23.353-.459.548-.689.176-.23.371-.459.547-.671l.566-.654c.318-.389.671-.76 1.024-1.131l.071-.07c.389-.424.777-.831 1.184-1.237.3-.318.618-.618.954-.919l.247-.229a51.122 51.122 0 0 1 6.201-4.983c.424-.282.848-.565 1.255-.83.212-.141.424-.283.671-.424.247-.159.495-.318.742-.459.247-.142.495-.301.76-.442a52.536 52.536 0 0 1 8.303-3.798c.407-.142.831-.283 1.237-.424.283-.089.548-.177.83-.265.283-.089.548-.159.831-.248.282-.07.565-.159.848-.229.282-.071.547-.142.812-.213.601-.141 1.202-.282 1.802-.406.265-.053.513-.106.778-.159l.583-.106.601-.106a25.07 25.07 0 0 1 1.148-.177h.035a49.83 49.83 0 0 1 7.244-.53h.83a51.022 51.022 0 0 1 19.081 4.099c39.292 16.855 85.209 5.212 111.674-28.32a94.985 94.985 0 0 0 20.406-58.231v-.177a94.685 94.685 0 0 0-15.547-52.348 94.605 94.605 0 0 0-41.872-35.052c-.618-.265-1.219-.53-1.837-.777a59.235 59.235 0 0 1-1.873-.777c-.936-.389-1.855-.76-2.809-1.131-.936-.371-1.873-.742-2.809-1.095l-1.537-.583a52.944 52.944 0 0 0-1.537-.566c-.459-.159-.901-.335-1.36-.494l-1.219-.442-1.891-.654c-1.307-.441-2.615-.883-3.94-1.307l-.901-.301-1.077-.353-1.626-.512-1.095-.336-.972-.283-1.378-.406c-.919-.265-1.855-.53-2.774-.795a74.83 74.83 0 0 0-1.908-.512l-1.802-.477h-.07l-.389-.106c-1.042-.265-2.067-.53-3.11-.778l-1.06-.247-1.236-.3c-.636-.142-1.237-.283-1.855-.424l-.142-.036-1.855-.406a292.358 292.358 0 0 0-3.869-.813l-1.131-.212a4912.719 4912.719 0 0 0-2.738-.53l-1.572-.282-.566-.106c-1.236-.212-2.473-.407-3.71-.619a150.043 150.043 0 0 0-3.904-.583l-1.555-.212-.883-.106c-.106 0-.212-.035-.318-.035l-.53-.071-.53-.07-1.025-.124-.707-.088-1.36-.159-.424-.053c-.548-.053-1.095-.124-1.661-.177l-1.537-.142-.53-.053-1.519-.141a60.955 60.955 0 0 0-1.802-.141 251.921 251.921 0 0 0-8.18-.495h-.619l-.353-.018-1.325-.053-1.873-.053a324.392 324.392 0 0 0-4.151-.07h-4.064c-.583 0-1.148 0-1.731.017-.583.018-1.113.018-1.661.036-.548 0-1.095.017-1.661.035-.795.018-1.607.053-2.402.088l-1.396.053-.636.036-1.043.053-1.36.07-1.237.071h-.176a238.105 238.105 0 0 0-32.42 4.293l-.388.071c-.866.177-1.732.371-2.615.548l-.141.035c-.389.088-.778.159-1.166.247a250.566 250.566 0 0 0-11.413 2.809 238.205 238.205 0 0 0-54.451 22.42l-1.855 1.06-.742.424-.318.194-.318.195a18.896 18.896 0 0 0-7.579 9.31 19.09 19.09 0 0 0-.477 11.996 19.106 19.106 0 0 0 6.819 9.876 18.905 18.905 0 0 0 11.396 3.781h.017l-.017.177Z"/><path d="m277.822 314.004-.159.265a163.25 163.25 0 0 0-19.257 45.865c-.018.088-.053.176-.071.265l-.265 1.113c-.035.176-.088.371-.123.547-.089.354-.159.707-.248 1.06a163.816 163.816 0 0 0-2.473 60.599l.212 1.378c.035.176.053.353.071.53.035.176.07.388.106.601.053.318.106.636.159.971l.035.177s0 .088.018.141a164.064 164.064 0 0 0 24.628 62.648l.318.495a161.476 161.476 0 0 0 3.71 5.371c.477.671.971 1.325 1.449 1.978.035.036.07.089.106.142a164.042 164.042 0 0 0 107.628 64.326l.23.035 1.077.159h.159l.884.142h.194l.954.141a163.98 163.98 0 0 0 39.045.247l.83-.106c.265-.035.53-.07.795-.088l1.113-.141.212-.036h.141l.248-.053 1.042-.141.371-.053c.636-.088 1.237-.177 1.838-.265h.017a163.934 163.934 0 0 0 74.838-31.995 18.75 18.75 0 0 0 4.93-5.548 19.04 19.04 0 0 0 2.42-7.031c.336-2.474.177-5-.459-7.421a18.812 18.812 0 0 0-3.286-6.66 19.085 19.085 0 0 0-5.601-4.894 18.83 18.83 0 0 0-7.049-2.367c-2.474-.318-5-.142-7.42.53a19.283 19.283 0 0 0-6.643 3.339 126.255 126.255 0 0 1-45.087 22.031c-.212.053-.424.088-.636.141a126.06 126.06 0 0 1-12.544 2.526h-.176c-.495.106-.99.159-1.484.23l-.548.071a126.613 126.613 0 0 1-16.342 1.06h-.036c-11.66 0-23.267-1.608-34.504-4.788l-.106-.035c-.865-.248-1.749-.513-2.614-.778a95.303 95.303 0 0 1-3.834-1.254l-1.961-.689-.848-.318-.248-.088a51.082 51.082 0 0 1-1.484-.566l-.424-.159-.742-.3-.194-.071h-.035a50.06 50.06 0 0 1-1.484-.6l-.371-.159-.407-.177c-.742-.318-1.466-.636-2.208-.954l-.601-.265a127.006 127.006 0 0 1-52.595-44.416l-.318-.459-.548-.83-.477-.742a127.057 127.057 0 0 1-20.317-67.666v-1.625c0-.654 0-1.307.018-1.961v-.159c.053-2.473.176-4.929.371-7.367.017-.265.035-.53.07-.778 0-.123.018-.247.036-.371a125.898 125.898 0 0 1 9.717-38.479 127.078 127.078 0 0 1 7.95-15.529c.071-.124.141-.248.212-.354.124-.212.265-.441.389-.653a127.228 127.228 0 0 1 7.296-10.53 126.676 126.676 0 0 1 23.303-23.321 123.114 123.114 0 0 1 7.968-5.653c2.314-1.502 4.7-2.933 7.138-4.311a127.575 127.575 0 0 1 43.797-14.893 128.255 128.255 0 0 1 18.038-1.272h.035c.459 0 .919-.018 1.396-.053h.088a125.247 125.247 0 0 1 47.472 9.946c.265.106.53.212.795.336h.035a18.853 18.853 0 0 0 14.505.194 18.944 18.944 0 0 0 10.388-10.123 18.93 18.93 0 0 0 .177-14.505c-1.855-4.664-5.512-8.392-10.123-10.388h-.036a155.082 155.082 0 0 0-8.604-3.428 163.283 163.283 0 0 0-79.838-8.179l-.653.106-1.043.159-.194.035-.777.124a162.87 162.87 0 0 0-63.284 24.522l-.142.088c-.282.194-.583.371-.865.565l-.884.583c-.194.142-.388.265-.583.407a162.594 162.594 0 0 0-43.867 43.903c-.248.353-.477.706-.707 1.06-.23.353-.495.742-.742 1.113l-.141.212c-.248.388-.513.795-.76 1.183l-.442.689c-.159.248-.318.495-.459.742a8.003 8.003 0 0 1-.265.407l-.318.494-.035.089.017-.036Z"/></g><defs><clipPath id="a"><path fill="#fff" transform="translate(144 160)" d="M0 0h480v480H0z"/></clipPath></defs></svg>