<svg width="48" height="48" viewBox="0 0 48 48" xmlns="http://www.w3.org/2000/svg"><defs><linearGradient x1="-.001%" y1="73.909%" x2="100.002%" y2="26.092%" id="a"><stop stop-color="#2E2E2E" offset="0%"/><stop stop-color="#696969" offset="99.3%"/></linearGradient></defs><path d="M47.885 21.597a3.741 3.741 0 0 0-4.023-3.483h-.077c-1.92.238-3.318 1.977-3.172 3.948v.154c.156 1.317.156 2.632-.076 3.948v.156c-.234 1.47-.62 2.94-1.161 4.256-3.56 8.438-13.306 12.386-21.815 8.825C9.13 35.84 5.184 26.087 8.743 17.649c2.243-5.34 7.118-9.057 12.842-9.908 1.934-.232 3.945-.232 5.878.155 2.4.386 4.024 2.554 3.714 4.954-.31 2.167-2.476 3.252-4.72 3.02h-.154c-.309-.079-.618-.079-1.005-.156h-.154c-.543-.077-1.084-.077-1.625-.077-4.796.232-8.432 4.335-8.2 9.134.231 4.8 4.332 8.438 9.128 8.205 3.945-.232 7.195-3.019 8.045-6.889 0-.078.232-1.239.232-1.239.077-.696.077-1.393.077-2.09 0-5.573 4.1-10.296 9.592-11.147h.233c.464-.077.928-.077 1.392-.077h.31C39.916 4.258 32.258 0 23.981 0 10.599.154-.154 11.147.002 24.462c.308 13.313 11.291 23.841 24.52 23.531 9.205-.232 17.482-5.65 21.273-14.01 0-.078.078-.078.078-.156a22.842 22.842 0 0 0 2.011-8.204c.155-1.394.155-2.71 0-4.026h.001z" fill="url(#a)" fill-rule="nonzero"/></svg>