<svg width="284" height="69" viewBox="0 0 284 69" xmlns="http://www.w3.org/2000/svg"><g fill-rule="nonzero" fill="none"><path d="M69.83 31.046c-.226-3.005-2.82-5.23-5.866-5.008h-.113c-2.82.334-4.85 2.893-4.625 5.675v.223c.225 1.892.225 3.783-.113 5.675v.223c-.338 2.114-.902 4.228-1.692 6.12-5.19 12.129-19.403 17.804-31.812 12.685C13.313 51.52 7.56 37.499 12.75 25.37c3.271-7.678 10.378-13.02 18.726-14.243 2.82-.334 5.753-.334 8.573.222 3.497.556 5.866 3.672 5.415 7.122-.45 3.115-3.61 4.673-6.88 4.34h-.227c-.45-.112-.902-.112-1.466-.223h-.226c-.79-.111-1.58-.111-2.369-.111-6.994.333-12.296 6.23-11.957 13.13.338 6.899 6.317 12.129 13.31 11.795 5.754-.334 10.492-4.34 11.733-9.903 0-.112.338-1.78.338-1.78.113-1.002.113-2.004.113-3.005 0-8.012 5.98-14.8 13.988-16.024h.34c.676-.111 1.353-.111 2.03-.111h.451C58.211 6.12 47.043 0 34.972 0 15.456.223-.224 16.024.002 35.163c.45 19.14 16.47 34.273 35.76 33.827 13.424-.333 25.494-8.123 31.022-20.14 0-.112.113-.112.113-.223a32.458 32.458 0 0 0 2.933-11.795 24.814 24.814 0 0 0 0-5.786z" fill="#46B549"/><path d="M103.131 55.886c-3.92-2.016-6.906-4.947-8.959-8.611C91.932 43.61 91 39.58 91 35s1.12-8.61 3.173-12.275c2.24-3.664 5.226-6.412 8.96-8.61A27.819 27.819 0 0 1 116.011 11c3.732 0 7.091.55 10.265 1.832 3.173 1.282 5.786 3.115 7.84 5.496l-4.48 4.214c-3.547-3.664-8.027-5.496-13.44-5.496-3.546 0-6.719.733-9.519 2.381-2.8 1.65-5.04 3.665-6.72 6.413-1.68 2.748-2.426 5.862-2.426 9.16s.746 6.412 2.426 9.16c1.68 2.748 3.92 4.947 6.72 6.413 2.8 1.648 5.973 2.381 9.52 2.381 5.226 0 9.705-1.832 13.438-5.68l4.48 4.215a23.25 23.25 0 0 1-7.839 5.496c-3.174 1.282-6.533 1.832-10.266 1.832-4.853 0-9.146-.916-12.88-2.931zm48.157 0c-3.92-2.016-6.906-4.947-9.146-8.611-2.24-3.664-3.36-7.695-3.36-12.275s1.12-8.61 3.36-12.275c2.24-3.664 5.226-6.595 9.146-8.61 3.92-2.016 8.213-3.115 13.066-3.115 4.853 0 9.146 1.1 12.88 3.114 3.92 2.016 6.905 4.947 8.958 8.611 2.24 3.664 3.173 7.695 3.173 12.275s-1.119 8.61-3.173 12.275c-2.053 3.664-5.226 6.412-8.959 8.61A27.818 27.818 0 0 1 164.354 59c-4.853-.183-9.146-1.1-13.066-3.114zm22.4-5.314a15.603 15.603 0 0 0 6.531-6.412c1.68-2.748 2.427-5.862 2.427-9.16s-.747-6.412-2.427-9.16c-1.679-2.748-3.733-4.947-6.532-6.413-2.8-1.465-5.973-2.381-9.333-2.381-3.547 0-6.72.733-9.519 2.381-2.8 1.65-5.04 3.665-6.72 6.413-1.68 2.748-2.426 5.862-2.426 9.16s.746 6.412 2.426 9.16c1.68 2.748 3.92 4.947 6.72 6.413 2.8 1.648 5.972 2.381 9.52 2.381 3.545 0 6.718-.733 9.332-2.382zm58.048 7.878L221.47 44.16c-1.307 0-2.24.184-2.986.184h-11.76v14.29h-6.719V11.55h18.48c6.158 0 11.011 1.465 14.557 4.397 3.547 2.93 5.227 6.961 5.227 11.908 0 3.664-.933 6.595-2.8 9.16-1.867 2.565-4.48 4.397-7.839 5.496l11.2 15.756h-7.094v.183zm-3.547-22.717c2.24-1.832 3.36-4.397 3.36-7.878s-1.12-6.046-3.36-7.695c-2.239-1.832-5.599-2.748-9.892-2.748h-11.573v21.069h11.573c4.293 0 7.653-.916 9.892-2.748zM284 58.45h-34.53v-46.9h33.597v5.862h-26.878v14.29h23.891v5.68h-23.89v15.023h27.81v6.045z" fill="#A6A6A6"/></g></svg>
