<svg width="800" height="800" fill="none" xmlns="http://www.w3.org/2000/svg"><rect width="800" height="800" rx="200" fill="#3749E7"/><path d="M622.125 316.982a145.937 145.937 0 0 0-2.647-15.849 140.852 140.852 0 0 0-4.576-15.85 145.88 145.88 0 0 0-6.694-15.85 89.093 89.093 0 0 0-1.021-2.009 143.339 143.339 0 0 0-8.13-13.802 129.7 129.7 0 0 0-7.677-10.428c-1.474-1.857-3.026-3.64-4.614-5.422a129.554 129.554 0 0 0-11.156-11.186 104.375 104.375 0 0 0-5.446-4.664c-3.327-2.731-6.807-5.271-10.361-7.659a132.875 132.875 0 0 0-13.841-8.191 31.904 31.904 0 0 0-1.966-.986 135.468 135.468 0 0 0-15.807-6.712 139.437 139.437 0 0 0-15.769-4.588 143.29 143.29 0 0 0-31.615-3.526H251.714a39.147 39.147 0 0 0-23.676 7.963 37.688 37.688 0 0 0-7.866 7.849 39.38 39.38 0 0 0-7.941 23.774v285.142c0 2.655.113 5.309.34 7.926a98.531 98.531 0 0 0 2.42 15.811 102.078 102.078 0 0 0 5.105 15.85 100.778 100.778 0 0 0 7.942 15.28c.113.198.239.388.378.568a98.457 98.457 0 0 0 12.442 15.85 54.146 54.146 0 0 0 2.95 2.958l.037.037a97.76 97.76 0 0 0 15.769 12.437c.181.14.37.266.568.38a100.343 100.343 0 0 0 15.24 7.963 101.274 101.274 0 0 0 15.807 5.118 98.258 98.258 0 0 0 15.769 2.427h.038v.341h134.285v-.151a9.672 9.672 0 0 0 5.664-3.37 9.718 9.718 0 0 0 2.202-6.223 9.447 9.447 0 0 0-2.156-6.104 9.547 9.547 0 0 0-3.705-2.844 94.468 94.468 0 0 1-2.005-1.137 150.408 150.408 0 0 1-7.903-4.778c-2.722-1.706-5.332-3.565-7.903-5.461a27.762 27.762 0 0 1-2.118-1.593 134.14 134.14 0 0 1-5.785-4.625c-1.74-1.442-3.442-2.958-5.105-4.474a129.436 129.436 0 0 1-6.884-6.749 56.928 56.928 0 0 1-2.533-2.692c-.455-.456-.87-.948-1.286-1.403a150.344 150.344 0 0 1-9.535-11.754c-2.193-2.996-4.311-6.067-6.278-9.252a147.073 147.073 0 0 1-3.933-6.598 149.235 149.235 0 0 1-7.713-15.811c-1.513-3.602-2.912-7.28-4.123-11.035a72.009 72.009 0 0 1-1.512-4.815 116.488 116.488 0 0 1-2.118-7.926 140.924 140.924 0 0 1-1.702-7.924 155.053 155.053 0 0 1-2.079-15.85 144.136 144.136 0 0 1-.341-5.801 126.087 126.087 0 0 1-.151-6.56v-51h-52.451a9.645 9.645 0 0 1-6.201-2.228 9.694 9.694 0 0 1-3.334-5.696 9.5 9.5 0 0 1 1.589-7.394l.341-.493 4.765-6.825 2.874-4.095 3.441-4.93 9.455-13.574 1.588-2.276 11.08-15.85 3.139-4.511 7.905-11.337 7.903-11.3 3.138-4.512 4.765-6.825 6.321-9.023 1.588-2.275 9.492-13.575 6.278-9.023 4.765-6.826 3.1-4.436a9.7 9.7 0 0 1 7.961-4.172 9.68 9.68 0 0 1 7.96 4.172l3.102 4.436 4.726 6.788 6.316 9.062 1.589 2.237 7.903 11.338 1.588 2.275 6.32 9.023 4.766 6.826 3.1 4.474 7.942 11.337 7.866 11.299 3.176 4.551 11.081 15.85 1.55 2.237 9.492 13.612 6.321 9.024 4.764 6.825.341.493a9.482 9.482 0 0 1 1.587 7.394 9.851 9.851 0 0 1-6.692 7.508 9.924 9.924 0 0 1-2.875.416h-52.413v47.549a39.452 39.452 0 0 0 3.29 15.811 37.68 37.68 0 0 0 4.575 7.849 40.428 40.428 0 0 0 15.808 12.628 39.188 39.188 0 0 0 15.807 3.298c.681 0 1.362 0 2.042-.037 4.652-.038 9.228-.342 13.766-.834a144.724 144.724 0 0 0 15.807-2.654 136.937 136.937 0 0 0 15.202-4.399h.567v-.189a135.384 135.384 0 0 0 15.808-6.712 138.919 138.919 0 0 0 15.466-8.949h.341v-.228a138.213 138.213 0 0 0 15.807-12.323 93.32 93.32 0 0 0 3.518-3.261 141.029 141.029 0 0 0 12.251-13.309 63.399 63.399 0 0 0 1.966-2.541 136.17 136.17 0 0 0 10.627-15.85 109.927 109.927 0 0 0 3.214-5.877 141.7 141.7 0 0 0 4.689-9.973c1.058-2.615 2.08-5.232 3.025-7.924a119.047 119.047 0 0 0 2.534-7.887 145.865 145.865 0 0 0 3.592-15.85 136.187 136.187 0 0 0 1.739-15.85h.227v-31.702a145.729 145.729 0 0 0-.874-15.809Z" fill="#fff"/></svg>