<svg width="199" height="64" fill="none" xmlns="http://www.w3.org/2000/svg"><mask id="a" style="mask-type:luminance" maskUnits="userSpaceOnUse" x="54" y="19" width="91" height="25"><path d="M145 19H54v25h91V19z" fill="#fff"/></mask><g mask="url(#a)" fill="#B1BCCC"><path opacity=".55" d="M65.966 19v12.5H54c0-1.281.185-2.517.528-3.68 1.16-3.945 4.14-7.057 7.917-8.269a11.457 11.457 0 0 1 3.52-.551z"/><path d="M65.966 37.75a6.37 6.37 0 0 1-1.753 4.419 6.007 6.007 0 0 1-1.771 1.28 5.751 5.751 0 0 1-2.459.551c-1.652 0-3.148-.7-4.23-1.831A6.37 6.37 0 0 1 54 37.75c0-.917.19-1.786.528-2.57.3-.694.717-1.319 1.224-1.85 1.083-1.131 2.579-1.83 4.231-1.83a6.37 6.37 0 0 0 1.752 4.419c1.083 1.131 2.579 1.831 4.23 1.831zm11.967-6.25H65.967V19c1.225 0 2.407.193 3.52.551 3.776 1.212 6.757 4.324 7.918 8.269.343 1.163.528 2.399.528 3.68z"/><path d="M77.933 31.5v6.25a6.37 6.37 0 0 1-1.753 4.419C75.097 43.299 73.6 44 71.95 44a5.75 5.75 0 0 1-2.46-.551 6.004 6.004 0 0 1-1.771-1.28 6.37 6.37 0 0 1-1.752-4.419V31.5h11.966zm28.426-.337c-.573-1.74-2.153-2.987-4.012-2.987h-7.24c-3.285 0-5.949 2.782-5.949 6.214 0 1.865.787 3.54 2.033 4.678a5.782 5.782 0 0 0 3.916 1.537c.975 0 1.896-.246 2.709-.68l6.37-3.323.081-.041c1.379-.731 2.323-2.227 2.323-3.953 0-.506-.081-.993-.231-1.445zm-3.743 1.95l-.053.028-1.523.794-2.21 1.152-2.646 1.379-.005.002-.116.061a2.16 2.16 0 0 1-.956.222c-1.248 0-2.26-1.057-2.26-2.36 0-1.304 1.012-2.361 2.26-2.361h7.24c.306 0 .554.259.554.578a.586.586 0 0 1-.285.506z"/><path d="M106.59 28.61v11.61a.377.377 0 0 1-.369.385h-2.951a.377.377 0 0 1-.369-.386V28.61c0-1.303-1.012-2.36-2.26-2.36h-7.424a.377.377 0 0 1-.37-.385V22.78c0-.213.166-.385.37-.385h7.424c.8 0 1.564.165 2.26.464 1.468.63 2.641 1.856 3.245 3.39a6.44 6.44 0 0 1 .444 2.36zm24.389 11.995h-3.136a.283.283 0 0 1-.277-.29v-17.63c0-.16.124-.29.277-.29h3.136c.153 0 .277.13.277.29v17.63c0 .16-.124.29-.277.29z"/><path d="M142.877 22.395c.154 0 .277.13.277.29v.144c0 3.142-1.156 6.003-3.051 8.141-.204.231-.417.454-.638.668-2.049 1.978-4.786 3.186-7.794 3.186h-2.036V30.97h1.929c4.301 0 7.87-3.592 7.9-8.085l-.001-.199a.281.281 0 0 1 .276-.291h3.138z"/><path d="M144.998 37.04v3.276c0 .16-.124.289-.277.289h-5.672c-3.334 0-6.336-1.484-8.433-3.854a11.916 11.916 0 0 1-1.968-3.055 12.238 12.238 0 0 1-.859-2.726h3.799a8.178 8.178 0 0 0 2.414 3.843 7.563 7.563 0 0 0 5.047 1.938h5.672c.153 0 .277.13.277.29zm-19.203 0v3.276c0 .16-.123.289-.276.289h-5.673c-3.008 0-5.747-1.208-7.793-3.187v-7.026c0 .23.129.43.316.522l.001.001a8.18 8.18 0 0 0 2.442 3.91 7.565 7.565 0 0 0 5.034 1.926h5.673c.153 0 .276.13.276.29z"/><path d="M123.762 23.932a5.78 5.78 0 0 0-3.916-1.537c-.975 0-1.896.246-2.709.68l-6.37 3.322-.08.042c-1.379.731-2.324 2.226-2.324 3.953 0 .506.081.992.232 1.445.573 1.74 2.152 2.987 4.011 2.987h7.24c3.285 0 5.949-2.783 5.949-6.214a6.32 6.32 0 0 0-2.033-4.678zm-3.916 7.038h-7.24a.566.566 0 0 1-.553-.578c0-.217.115-.407.285-.506l.052-.027 1.523-.794 2.21-1.152 2.646-1.379.005-.003.117-.06c.29-.143.614-.222.955-.222 1.248 0 2.26 1.057 2.26 2.36 0 1.304-1.012 2.361-2.26 2.361z"/><path d="M111.776 40.605h-3.136a.283.283 0 0 1-.277-.29v-17.63c0-.16.124-.29.277-.29h3.136c.153 0 .277.13.277.29v17.63c0 .16-.124.29-.277.29z"/></g></svg>