<svg width="200" height="64" fill="none" xmlns="http://www.w3.org/2000/svg"><path d="M85.359 39.48c3.174 0 5.428-1.757 5.89-4.56a.32.32 0 0 0-.318-.369h-2.127a.32.32 0 0 0-.31.244c-.373 1.458-1.54 2.343-3.127 2.343-2.16 0-3.516-1.78-3.516-4.666 0-2.887 1.375-4.638 3.508-4.638 1.56 0 2.786.978 3.131 2.494a.321.321 0 0 0 .312.251h2.131a.32.32 0 0 0 .319-.36c-.378-2.828-2.778-4.728-5.893-4.728-3.91 0-6.388 2.633-6.388 6.99 0 4.356 2.46 6.998 6.388 6.998zm11.228-10.726c-3.096 0-5.08 2.033-5.08 5.331 0 3.299 1.955 5.341 5.08 5.341s5.08-1.996 5.08-5.34c0-3.345-1.974-5.332-5.08-5.332zm0 8.562c-1.441 0-2.31-1.18-2.31-3.23 0-2.051.87-3.233 2.31-3.233s2.3 1.2 2.3 3.232c0 2.033-.86 3.231-2.3 3.231zm5.91 1.93h2.091a.32.32 0 0 0 .32-.321v-5.45c0-1.442.814-2.305 2.198-2.305.275 0 .536.031.749.08a.212.212 0 0 0 .261-.206v-2.052a.108.108 0 0 0-.081-.104 2.872 2.872 0 0 0-.714-.079c-1.215 0-2.104.693-2.45 1.967h-.056v-1.524a.32.32 0 0 0-.321-.32h-1.996a.32.32 0 0 0-.32.32v9.673a.32.32 0 0 0 .319.321z" fill="#B1BCCC"/><path d="M117.087 34.722a.32.32 0 0 0 .321-.322v-.521c0-3.14-1.889-5.125-4.855-5.125-2.965 0-4.948 2.098-4.948 5.378 0 3.279 1.918 5.293 5.051 5.293 2.333 0 4.106-1.152 4.582-2.92a.321.321 0 0 0-.31-.405h-1.973a.212.212 0 0 0-.196.128c-.304.72-1.085 1.155-2.057 1.155-1.44 0-2.402-1.002-2.402-2.492v-.17h6.787zm-4.505-3.926c1.262 0 2.142.88 2.188 2.23h-4.443c.093-1.322 1.011-2.23 2.255-2.23zm11.164-5.067h-5.31a.32.32 0 0 0-.321.32v12.878a.32.32 0 0 0 .321.32h2.183a.32.32 0 0 0 .321-.32v-3.942h2.665c2.844 0 4.818-1.855 4.818-4.629 0-2.774-1.909-4.629-4.677-4.629v.002zm-.758 7.045h-2.049v-4.806h2.058c1.617 0 2.553.862 2.553 2.399s-.944 2.407-2.562 2.407z" fill="#B1BCCC"/><path d="M132.796 28.754c-2.408 0-4.119 1.191-4.389 2.957-.03.194.122.37.317.37h1.976a.213.213 0 0 0 .205-.158c.195-.665.858-1.118 1.778-1.118 1.122 0 1.806.543 1.806 1.537v.683l-2.572.16c-2.629.16-4.06 1.218-4.06 3.093 0 1.874 1.488 3.091 3.471 3.091 1.318 0 2.59-.638 3.152-1.714h.056v1.271a.32.32 0 0 0 .321.321h1.996a.321.321 0 0 0 .321-.321v-6.752c0-2.06-1.731-3.42-4.378-3.42zm1.693 6.709c0 1.123-1.01 1.91-2.274 1.91-.991 0-1.636-.477-1.636-1.236 0-.758.609-1.209 1.748-1.283l2.162-.15v.76-.001zm3.39-3.495c0 1.508 1.001 2.512 2.937 2.952l1.899.43c.936.225 1.29.506 1.29 1.04 0 .675-.663 1.097-1.749 1.097-1.085 0-1.74-.427-1.931-1.196a.215.215 0 0 0-.208-.163h-2.127a.324.324 0 0 0-.317.38c.32 1.772 1.973 2.918 4.507 2.918 2.694 0 4.537-1.32 4.537-3.326 0-1.537-.823-2.333-2.89-2.802l-1.936-.422c-.926-.215-1.375-.562-1.375-1.077 0-.665.654-1.105 1.637-1.105.982 0 1.626.441 1.763 1.152a.213.213 0 0 0 .21.178h1.993c.194 0 .343-.17.319-.362-.227-1.764-1.864-2.908-4.248-2.908-2.61 0-4.311 1.275-4.311 3.214zm9.126-.002c0 1.508 1.001 2.511 2.937 2.951l1.899.43c.935.226 1.291.506 1.291 1.04 0 .675-.664 1.097-1.749 1.097s-1.74-.426-1.932-1.195a.213.213 0 0 0-.207-.164h-2.127a.324.324 0 0 0-.317.382c.32 1.77 1.973 2.917 4.507 2.917 2.694 0 4.537-1.32 4.537-3.327 0-1.536-.824-2.332-2.89-2.801l-1.936-.422c-.926-.215-1.375-.562-1.375-1.077 0-.665.654-1.105 1.637-1.105.982 0 1.626.44 1.763 1.152.02.103.105.178.21.178h1.993c.194 0 .343-.17.319-.363-.228-1.763-1.864-2.908-4.248-2.908-2.61 0-4.312 1.274-4.312 3.214zM72.899 43.921a1.403 1.403 0 0 0-.938-.486 1.373 1.373 0 0 0-1.006.32l-.107.087-.077.064c-.4.325-.817.63-1.25.912l-.056.037a9.76 9.76 0 0 1-.287.18l-.066.04a2.688 2.688 0 0 0-.063.039l-.037.023-.067.04c-.022.013-.042.026-.064.037-.255.148-.515.29-.779.422l-.066.033-.09.047-.12.058-.01.005c-.04.02-.08.037-.12.056l-.09.043-.06.027-.094.042c-.04.018-.083.038-.126.056a9.245 9.245 0 0 1-.257.108l-.131.053-.254.099h-.002a8.308 8.308 0 0 1-.254.092l-.016.007-.121.042a2.331 2.331 0 0 0-.126.044l-.128.041a1.029 1.029 0 0 1-.036.012l-.082.025-.069.022a7.08 7.08 0 0 1-.207.063l-.046.015-.085.024-.098.027-.078.022-.052.014-.065.017-.223.056-.055.014a7.964 7.964 0 0 1-.145.035l-.017.004-.102.023a7.762 7.762 0 0 1-.187.04l-.176.036c-.047.01-.096.018-.144.027l-.089.016-.08.014-.114.02-.112.017-.014.003-.136.02-.132.018-.028.004-.108.014h-.008l-.09.012-.08.009a13.35 13.35 0 0 1-.238.026h-.019c-.026.005-.053.007-.078.01l-.069.006-.08.007-.082.006a28.93 28.93 0 0 1-.321.022l-.143.008-.081.002-.062.003-.078.003h-.08l-.081.003h-.029l-.133.002h-.292a14.763 14.763 0 0 1-4.478-.752l-.156-.052c-.025-.01-.051-.018-.076-.027-.024-.01-.051-.018-.075-.027a4.59 4.59 0 0 1-.124-.046l-.052-.019-.137-.051-.023-.01-.053-.02-.018-.008-.014-.005-.031-.011-.028-.012h-.007l-.013-.006-.058-.023-.074-.031-.124-.052h-.006l-.083-.036-.096-.042a14.807 14.807 0 0 1-6.386-5.388 14.804 14.804 0 0 1-2.433-8.098v-.219c0-.055.003-.11.004-.165v-.013c.045-1.643.364-3.268.946-4.806l.062-.16.056-.144.04-.096.067-.158c.024-.058.05-.116.076-.174l.005-.012a.127.127 0 0 1 .007-.015l.053-.12.002-.004.05-.109.014-.032.008-.018a.717.717 0 0 1 .026-.053.897.897 0 0 1 .015-.033l.016-.034.003-.008.01-.02.061-.124.01-.02.081-.161.058-.113.013-.023.002-.004v-.003l.035-.065c.004-.008.01-.016.013-.024l.026-.047.025-.046.005-.01.01-.018.044-.082a14.59 14.59 0 0 1 1.61-2.34l.03-.039a1.38 1.38 0 0 0-2.143-1.738 17.43 17.43 0 0 0-1.413 1.931l-.01.015-.111.177c-.02.03-.037.062-.057.094a17.428 17.428 0 0 0-1.918 4.502l-.008.028-.037.142-.01.04-.02.075-.019.076c-.013.05-.024.1-.036.152l-.002.013-.006.022v.005l-.023.095-.006.026a17.468 17.468 0 0 0-.2 6.698c.003.017.005.035.01.053a17.417 17.417 0 0 0 2.417 6.377l.062.097.058.09.057.09.085.13.05.075.021.03a7.058 7.058 0 0 0 .106.155c.002.005.006.01.009.014l.01.015.087.126a11.41 11.41 0 0 0 .22.305l.092.124c.014.02.028.04.044.058l.073.097.046.06.071.09.039.05.078.098c.017.021.032.041.049.06.023.03.046.059.07.087l.05.06c.024.029.05.057.074.087l.053.062.072.084c.039.047.078.092.118.136l.127.141c.042.046.087.098.132.145.045.05.089.097.134.144l.136.143c.95.987 2.013 1.86 3.168 2.596l.027.016.093.058a17.45 17.45 0 0 0 5.658 2.302l.093.02.085.016.18.036.09.017.046.008.047.007.095.017.023.004.033.006c.035.007.07.012.106.018l.127.02.13.02.128.02.128.017.129.017.081.01.084.01.074.01.157.017.114.011.068.007.095.008c.163.016.328.028.493.038.064.004.128.008.193.01.106.005.215.01.321.013h.043l.195.004h.502c.067 0 .133-.003.2-.004h.014c.068-.001.135-.004.203-.006l.104-.004.104-.005.191-.01.28-.019a21.83 21.83 0 0 0 .622-.058l.113-.013c.039-.003.076-.009.113-.014l.044-.005.107-.014.132-.018.026-.004c.05-.008.1-.014.152-.023l.018-.003.098-.015.092-.016.056-.009h.009l.21-.037.014-.002.123-.024a17.381 17.381 0 0 0 5.81-2.216c.033-.02.064-.04.096-.058l.298-.188.114-.074a17.69 17.69 0 0 0 1.707-1.27 1.382 1.382 0 0 0 .166-1.941h-.005z" fill="#B1BCCC"/><path d="M53.404 19.945c.243 0 .483-.065.692-.188a14.865 14.865 0 0 1 1.29-.666l.09-.04.093-.042a3.07 3.07 0 0 1 .064-.027l.122-.053.091-.038a7.33 7.33 0 0 1 .187-.076l.07-.028.118-.047.085-.032c.133-.05.267-.098.404-.144l.08-.027c.157-.053.318-.104.48-.152l.079-.023c.208-.06.417-.116.628-.167l.07-.017.08-.02.056-.012.059-.014c.039-.01.078-.018.117-.026.06-.013.118-.026.179-.037l.099-.02c.134-.025.267-.05.401-.073.065-.01.13-.022.195-.03.065-.011.13-.02.2-.03l.013-.003c.095-.013.19-.026.286-.037l.2-.024c.067-.007.134-.014.201-.019l.202-.016.126-.01.254-.015.126-.006c.026 0 .05-.003.076-.003l.07-.003.08-.002.079-.003.16-.002h.191a14.534 14.534 0 0 1 2.199.166l.084.013.14.023.027.005.023.004.106.018.034.006.047.01.046.008.087.017c.031.005.062.012.092.018l.024.005.21.045.064.014c.05.01.097.022.146.034l.17.04c.052.014.105.028.158.04l.056.016.06.016h.003l.115.03c.005 0 .01.003.015.004l.053.016.073.02.06.017.086.025.067.02.06.018.029.01h.002l.035.01.073.023.046.014.061.02c.036.01.07.022.107.034l.162.055c.238.084.473.173.708.268l.08.033c.057.025.115.048.173.074a4.146 4.146 0 0 1 2.173 5.435 4.145 4.145 0 0 1-5.436 2.172 6.476 6.476 0 0 0-2.472-.522h-.002a6.438 6.438 0 0 0-1.217.104l-.044.008-.055.01c-.027.005-.056.01-.083.017h-.005a1.54 1.54 0 0 1-.087.02l-.07.017-.041.01-.067.017-.063.017-.044.012a6.367 6.367 0 0 0-.265.08l-.105.034-.053.018c-.018.007-.035.012-.053.02l-.051.019c-.052.02-.104.038-.155.06a6.44 6.44 0 0 0-.75.357l-.047.027-.097.055c-.032.02-.063.037-.095.058-.03.02-.06.037-.089.057l-.077.05-.053.034a.44.44 0 0 0-.03.021l-.037.026-.043.03c-.03.021-.06.042-.088.064l-.089.065-.044.033a6.328 6.328 0 0 0-.923.87l-.062.073-.023.027c-.026.03-.052.061-.076.092-.01.01-.017.02-.025.031a3.237 3.237 0 0 0-.063.081l-.045.058a6.354 6.354 0 0 0-.836 1.492l-.002.007-.024.058-.022.057-.016.045a3.21 3.21 0 0 0-.02.055l-.023.067-.023.07a6.365 6.365 0 0 0-.194 3.298c.16.798.47 1.557.917 2.238l.036.055a6.34 6.34 0 0 0 1.723 1.741l.066.044a6.38 6.38 0 0 0 2.84 1.038l.074.008.066.006.03.003a6.304 6.304 0 0 0 1.274-.017h.004a6.446 6.446 0 0 0 2.419-.775 1.386 1.386 0 0 0 .654-.828 1.374 1.374 0 0 0-.474-1.458 1.37 1.37 0 0 0-1.016-.287c-.18.022-.354.077-.512.166a3.684 3.684 0 0 1-2.208.44l-.04-.005-.07-.009c-.023-.004-.049-.006-.074-.011-.031-.006-.06-.01-.092-.017a2.482 2.482 0 0 1-.141-.031l-.04-.01-.046-.01-.047-.012-.046-.013-.039-.012-.05-.015-.089-.029-.043-.015-.088-.032a3.875 3.875 0 0 1-.13-.053l-.033-.014-.035-.015-.035-.017-.054-.026a3.71 3.71 0 0 1-1.392-1.181l-.03-.046-.03-.044-.026-.04a3.717 3.717 0 0 1-.592-1.938v-.12l.001-.06.003-.059c0-.014 0-.028.002-.042l.003-.043a2.723 2.723 0 0 1 .014-.148l.01-.082a.946.946 0 0 1 .017-.108l.016-.085.015-.081.02-.09c.005-.018.008-.038.014-.058l.011-.047.027-.096a3.651 3.651 0 0 1 .483-1.011c.01-.017.023-.033.033-.048l.054-.075.028-.038.031-.04.04-.05.04-.05.041-.047c.023-.028.05-.055.075-.082l.005-.005a2.715 2.715 0 0 1 .156-.157l.018-.017a3.73 3.73 0 0 1 .592-.454l.054-.034.055-.032a3.71 3.71 0 0 1 .605-.276l.09-.031.06-.02.06-.018.062-.016.06-.016.13-.03.058-.01.042-.009.044-.007a.794.794 0 0 1 .083-.013h.003a3.63 3.63 0 0 1 .527-.039h.06c.48.01.95.11 1.39.299a6.907 6.907 0 0 0 8.133-2.063 6.917 6.917 0 0 0 1.486-4.24v-.014a6.894 6.894 0 0 0-4.181-6.364c-.045-.02-.089-.04-.134-.057a9.586 9.586 0 0 0-.341-.139l-.204-.08-.112-.042a3.885 3.885 0 0 0-.112-.042l-.1-.035-.088-.033-.138-.047c-.095-.032-.19-.065-.287-.095l-.066-.022-.078-.026-.118-.037-.08-.025-.07-.02-.101-.03-.202-.058a3.193 3.193 0 0 0-.14-.037l-.13-.035h-.006l-.028-.008-.226-.056-.078-.018-.09-.022-.135-.031-.01-.003-.135-.03a21.38 21.38 0 0 0-.282-.059l-.082-.015-.12-.023a8.905 8.905 0 0 1-.08-.015l-.114-.021-.041-.008-.27-.045c-.096-.015-.19-.03-.285-.042l-.113-.016-.064-.007-.024-.003-.038-.005-.039-.005-.074-.01-.052-.006-.099-.011-.03-.004c-.04-.004-.08-.01-.122-.013l-.112-.01-.038-.004-.111-.01a18.08 18.08 0 0 0-.727-.046h-.045l-.026-.002-.096-.004-.137-.004-.302-.005h-.296l-.126.001-.12.003-.122.002a7.87 7.87 0 0 0-.175.007l-.101.004-.047.002-.076.004-.099.005-.09.005h-.013c-.794.05-1.582.155-2.36.313l-.029.005-.19.04-.01.003-.086.018a17.346 17.346 0 0 0-4.797 1.837l-.134.077-.054.031-.023.014-.024.014a1.376 1.376 0 0 0-.586 1.552 1.377 1.377 0 0 0 1.327.995v.013z" fill="#B1BCCC"/><path d="M51.293 26.227l-.012.02a11.883 11.883 0 0 0-1.402 3.34l-.005.02-.02.08-.008.04-.018.077a11.93 11.93 0 0 0-.18 4.414l.015.1a.425.425 0 0 1 .005.038 8.128 8.128 0 0 1 .02.114l.002.014.001.01a11.948 11.948 0 0 0 1.794 4.563l.023.036c.087.132.177.262.27.39l.105.145a11.946 11.946 0 0 0 7.846 4.695l.017.002.079.012h.011l.065.01h.014l.07.01c.942.12 1.897.125 2.843.019l.06-.008a.876.876 0 0 1 .058-.007l.081-.01.016-.002h.01l.018-.004.076-.01.027-.005.134-.019a11.938 11.938 0 0 0 5.451-2.33 1.367 1.367 0 0 0 .535-.916 1.37 1.37 0 0 0-.68-1.382 1.373 1.373 0 0 0-1.054-.134c-.175.05-.34.132-.484.243a9.192 9.192 0 0 1-3.283 1.605l-.047.01a9.179 9.179 0 0 1-.913.184h-.013c-.036.008-.072.012-.108.017l-.04.005a9.205 9.205 0 0 1-1.19.077h-.003a9.242 9.242 0 0 1-2.512-.348l-.008-.003a10.319 10.319 0 0 1-.47-.148l-.143-.05-.061-.023-.018-.007a3.568 3.568 0 0 1-.109-.04l-.03-.012-.054-.022-.015-.005h-.002a3.755 3.755 0 0 1-.108-.044l-.027-.012-.03-.013-.16-.07-.044-.018a9.25 9.25 0 0 1-3.83-3.235l-.024-.034-.04-.06-.035-.054a9.253 9.253 0 0 1-1.48-4.928v-.118c0-.048 0-.096.002-.143v-.012a9.24 9.24 0 0 1 .035-.62 9.17 9.17 0 0 1 1.286-3.933.448.448 0 0 1 .016-.026l.028-.047a9.223 9.223 0 0 1 3.329-3.19 9.291 9.291 0 0 1 3.19-1.086 9.349 9.349 0 0 1 1.313-.093h.003c.033 0 .066 0 .101-.003h.007a9.122 9.122 0 0 1 3.515.748h.002a1.38 1.38 0 1 0 1.089-2.536h-.003a11.89 11.89 0 0 0-6.44-.845l-.048.008-.076.011-.014.003-.057.009a11.863 11.863 0 0 0-4.609 1.786l-.01.006-.063.041-.064.043-.043.03a11.84 11.84 0 0 0-3.246 3.274l-.054.081-.01.015-.056.087-.032.05-.033.054a.586.586 0 0 1-.02.03l-.023.036-.002.006v-.003z" fill="#B1BCCC"/></svg>