<svg width="200" height="64" fill="none" xmlns="http://www.w3.org/2000/svg"><mask id="a" style="mask-type:luminance" maskUnits="userSpaceOnUse" x="26" y="22" width="149" height="19"><path d="M175 22H26v19h149V22z" fill="#fff"/></mask><g mask="url(#a)" fill="#B1BCCC"><path d="M57.106 36.013c-.467 0-.778-.12-1.12-.446-.342-.326-.466-.623-.466-1.069v-5.937c0-.445.124-.742.466-1.069.342-.326.653-.445 1.12-.445h7.745v1.01h-7.745c-.125 0-.249.059-.404.118a.463.463 0 0 0-.125.327v5.937c0 .119.062.238.125.386.124.06.186.119.404.119h7.745v1.01h-7.745v.059zm13.189 0c-.466 0-.777-.12-1.12-.446-.342-.326-.466-.623-.466-1.069v-5.937c0-.445.124-.742.467-1.069.342-.326.653-.445 1.12-.445h6.252c.466 0 .778.119 1.12.445.342.327.466.624.466 1.069v5.937c0 .446-.124.743-.466 1.07-.343.326-.654.445-1.12.445h-6.253zm0-1.01h6.253c.124 0 .249-.06.342-.119.124-.118.124-.178.124-.386v-5.937a.605.605 0 0 0-.124-.327c-.062-.118-.187-.118-.342-.118h-6.253c-.124 0-.248.059-.404.118a.463.463 0 0 0-.124.327v5.937c0 .12.062.238.124.386.218.06.28.12.404.12zm11.852-3.295v4.305h1.057v-3.325h3.95l2.956 3.295h1.368l-2.955-3.295h1.431c.467 0 .778-.12 1.12-.446.342-.326.467-.623.467-1.069v-2.612c0-.386-.125-.742-.467-1.069-.342-.326-.653-.445-1.12-.445h-7.807v1.01h7.745c.124 0 .249.059.342.118.062.06.125.178.125.327v2.612a.605.605 0 0 1-.125.327.511.511 0 0 1-.342.118h-7.745v.149zm13.376 4.304v-4.928h7.093v1.009h-6.035v2.939h7.497v1.01h-8.555v-.03zm4.604-7.868h-4.604v-1.01h8.555v1.01h-3.951zm17.762 0v7.867h1.057v-7.867h4.138v-1.01h-9.395v1.01h4.2zm10.295 7.869c-.467 0-.778-.12-1.12-.446-.342-.326-.466-.623-.466-1.069v-5.937c0-.445.124-.742.466-1.069.342-.326.653-.445 1.12-.445h6.252c.467 0 .778.119 1.12.445.342.327.467.624.467 1.069v5.937c0 .446-.125.743-.467 1.07-.342.326-.653.445-1.12.445h-6.252zm0-1.01h6.252c.125 0 .249-.06.343-.119.124-.118.124-.178.124-.386v-5.937a.606.606 0 0 0-.124-.327c-.063-.118-.187-.118-.343-.118h-6.252c-.124 0-.249.059-.404.118a.46.46 0 0 0-.125.327v5.937c0 .12.062.238.125.386.155.06.28.12.404.12zm11.916-7.868v8.936h1.057v-3.919h3.018l3.483 3.919h1.369l-3.95-4.424 3.95-4.423h-1.369l-3.483 3.919h-3.018v-4.008H140.1zm12.939 0h8.554v1.01h-8.554v-1.01zm0 3.949v4.929h8.554v-1.01h-7.496v-2.939h6.034v-1.01h-7.092v.03zm13.997-3.949h-1.431v8.936h1.058v-7.808l6.844 7.748h1.43v-8.876h-1.057v7.748l-6.844-7.748zM36.016 37.822c3.67 0 6.626-2.82 6.626-6.234s-2.955-6.235-6.626-6.235c-3.67 0-6.625 2.82-6.625 6.235 0 3.414 2.955 6.234 6.625 6.234z"/><path d="M42.238 38.803c-3.888 2.998-9.58 2.82-13.22-.624-3.889-3.681-3.889-9.56 0-13.24 3.608-3.444 9.332-3.622 13.22-.624l-1.12 1.069c-3.235-2.434-7.963-2.197-10.918.623-3.297 3.058-3.297 8.046-.062 11.104 2.955 2.82 7.683 3.057 10.918.623l1.182 1.069zm1.399-1.306a9.061 9.061 0 0 0 0-11.875l-1.12 1.068c2.365 2.82 2.365 6.799 0 9.678l1.12 1.129z"/></g></svg>