<svg width="199" height="64" fill="none" xmlns="http://www.w3.org/2000/svg"><path d="M93.066 24.12h6.421c4.202 0 6.117 2.204 6.117 5.43 0 3.2-1.915 5.406-6.117 5.406h-3.362v5.762h-3.059V24.119zm6.304 8.11c2.102 0 3.058-1.02 3.058-2.68 0-1.684-.956-2.704-3.058-2.704h-3.245v5.383h3.245zm7.935-7.233c0-.95.793-1.684 1.703-1.684.888 0 1.682.735 1.682 1.684 0 .925-.794 1.66-1.682 1.66-.91 0-1.703-.735-1.703-1.66zm.209 3.39h2.988v12.33h-2.988v-12.33zm16.761 4.577v7.754h-2.989v-7.043c0-2.015-.864-3.011-2.475-3.011-1.633 0-2.825.996-2.825 3.01v7.044h-2.988v-12.33h2.988v2.536h.095c.233-1.067 1.399-2.774 3.968-2.774 2.381 0 4.226 1.47 4.226 4.814zm13.886-4.577v11.951c0 4.434-3.642 5.335-6.14 5.335-2.241 0-5.51-.712-5.532-4.126h2.637c.071 1.257 1.495 1.78 2.825 1.78 1.774 0 3.222-.878 3.222-2.989V38.56c-.701 1.09-2.055 1.85-3.783 1.85-2.545 0-5.183-1.684-5.183-6.118 0-4.435 2.686-6.142 5.183-6.142 1.728 0 3.082.76 3.783 1.85v-1.613h2.988zm-2.871 5.904c0-2.465-1.472-3.603-3.129-3.603-1.658 0-3.152 1.138-3.152 3.604 0 2.442 1.494 3.604 3.152 3.604 1.657 0 3.129-1.162 3.129-3.605zm-49.13-7.287a8.841 8.841 0 0 0-1.416-3.94 8.025 8.025 0 0 0-.472-.648 7.712 7.712 0 0 0-.283-.337 7.998 7.998 0 0 0-.685-.695 8.295 8.295 0 0 0-.97-.766 8.126 8.126 0 0 0-.97-.571 8.24 8.24 0 0 0-.97-.418 8.458 8.458 0 0 0-.968-.285 8.689 8.689 0 0 0-1.94-.219H63.422c-.524 0-1.034.174-1.453.495a2.47 2.47 0 0 0-.97 1.966v17.728c0 .165.007.33.02.493a6.389 6.389 0 0 0 .95 2.918 6.12 6.12 0 0 0 .968 1.205l.002.002a6.012 6.012 0 0 0 1.003.797 6.128 6.128 0 0 0 2.874.964h.002v.022h8.243v-.01a.585.585 0 0 0 .347-.21.61.61 0 0 0 .135-.386.592.592 0 0 0-.132-.38.587.587 0 0 0-.227-.177l-.123-.07a9.176 9.176 0 0 1-.97-.637 8.29 8.29 0 0 1-.485-.387 8.722 8.722 0 0 1-.736-.697 3.527 3.527 0 0 1-.156-.168c-.028-.028-.053-.059-.079-.087a9.312 9.312 0 0 1-.97-1.306 9.33 9.33 0 0 1-.968-2.08 4.488 4.488 0 0 1-.093-.298 7.32 7.32 0 0 1-.13-.493 9.743 9.743 0 0 1-.262-2.247v-3.17h-3.22a.587.587 0 0 1-.38-.14.603.603 0 0 1-.205-.353.598.598 0 0 1 .097-.46l.021-.03.293-.425.176-.255.211-.306.58-.844.098-.142.68-.985.193-.28.485-.705.485-.703.193-.28.292-.425.388-.56.098-.142.582-.844.386-.561.292-.424.19-.276a.598.598 0 0 1 .49-.26.587.587 0 0 1 .488.26l.19.276.29.422.388.563.097.14.485.704.098.141.388.561.292.425.19.278.488.705.483.702.195.283.68.986.095.139.583.846.388.561.292.424.021.031a.593.593 0 0 1 .098.46.617.617 0 0 1-.411.467.6.6 0 0 1-.177.025h-3.217v2.957a2.48 2.48 0 0 0 .483 1.47c.253.342.587.612.97.786.306.136.637.205.97.205.042 0 .084 0 .126-.002a8.337 8.337 0 0 0 1.815-.217 8.31 8.31 0 0 0 .933-.274h.035v-.012a8.14 8.14 0 0 0 .97-.417c.328-.164.645-.35.95-.556h.02v-.014a8.487 8.487 0 0 0 1.187-.97 8.724 8.724 0 0 0 1.722-2.336 8.575 8.575 0 0 0 .629-1.602c.091-.325.165-.654.22-.986a8.57 8.57 0 0 0 .107-.986h.014v-1.97a9.17 9.17 0 0 0-.054-.983z" fill="#B1BCCC"/></svg>