<svg xmlns="http://www.w3.org/2000/svg" width="199" height="64"><path d="M82.6 24.197h5.2a.44.44 0 0 1 .44.44v14.31a.44.44 0 0 1-.44.44h-5.2a.436.436 0 0 1-.311-.129.436.436 0 0 1-.129-.311v-14.31a.44.44 0 0 1 .44-.44zm19.127-.253c2.567 0 4.527.667 5.878 2 1.318 1.299 1.976 3.156 1.976 5.568v7.434a.44.44 0 0 1-.44.44h-5.2a.44.44 0 0 1-.44-.44v-7.332c0-1.74-1.266-2.608-3.8-2.608-2.532 0-3.799.87-3.799 2.607v7.333a.44.44 0 0 1-.44.44h-5.2a.436.436 0 0 1-.311-.129.436.436 0 0 1-.129-.311v-14.31a.44.44 0 0 1 .44-.44h5.2c.244 0 .44.196.44.44v1.256c1.35-1.297 3.293-1.948 5.825-1.948zm32.333.447a.44.44 0 0 0-.431-.44c-.983-.026-3.22.17-4.689 1.166-.354.23-.688.49-.998.777v.003c-1.734-1.3-4.21-1.953-7.436-1.953-3.31 0-5.844.693-7.6 2.076-1.689 1.35-2.533 3.275-2.533 5.774 0 2.497.844 4.42 2.533 5.77 1.129.89 2.58 1.492 4.35 1.81v.001c1.029.192 2.23.29 3.666.275a21.49 21.49 0 0 0 1.216-.071c.326-.025.643-.059.951-.1.19-.023.381-.048.567-.076a.788.788 0 1 1 .232 1.56c-1.148.17-2.398.272-3.347.272-1.127 0-2.179-.076-3.156-.228a15.013 15.013 0 0 1-1.898-.418.44.44 0 0 0-.538.283l-1.284 3.85a.44.44 0 0 0 .255.547c1.641.66 3.484.902 5.241.999 2.418.133 5.024.076 7.38-.524.577-.147 1.153-.34 1.677-.618.346-.184.67-.405.955-.673.656-.615 1.079-1.451 1.281-2.327.417-1.794.176-3.999-1.565-4.998a4.322 4.322 0 0 0-.191-.1c1.292-1.306 1.938-3.052 1.938-5.236 0-.972-.13-1.857-.385-2.655.491-.091.99-.134 1.489-.13.683 0 1.274.062 1.772.19.277.07.545-.14.545-.427zm-13.554 4.617c2.703 0 4.053.927 4.053 2.784 0 1.858-1.351 2.785-4.053 2.785-2.703 0-4.053-.992-4.053-2.785 0-1.915 1.35-2.784 4.053-2.784zm-39.927-.441v-3.93a.436.436 0 0 0-.129-.311.436.436 0 0 0-.311-.129h-5.64v-5.953a.44.44 0 0 0-.578-.418l-5.2 1.736a.44.44 0 0 0-.301.417v4.22h-2.98a.436.436 0 0 0-.311.129.436.436 0 0 0-.129.311v3.928c0 .243.196.44.44.44h2.98v4.823c0 2.109.7 3.62 2.102 4.531 1.334.86 3.504 1.29 6.51 1.29a18.497 18.497 0 0 0 3.187-.261.439.439 0 0 0 .36-.432v-4.16a.438.438 0 0 0-.522-.43c-.8.149-1.556.222-2.265.222-1.132 0-1.942-.103-2.432-.305-.574-.218-.86-.624-.86-1.214v-4.065h5.639a.44.44 0 0 0 .44-.44zm7.221-5.949h-5.2a.436.436 0 0 1-.311-.129.436.436 0 0 1-.129-.311V18.24a.44.44 0 0 1 .44-.44h5.2a.44.44 0 0 1 .44.44v3.939a.44.44 0 0 1-.44.44z" fill="#B1BCCC"/></svg>